:SAMPLES-PER-SECOND 30
:FULLY-SPECIFIED
:DEGREES
17
root  74.2601 40.156 18.7766 -74.4069 -88.5573 75.4821
RightUpLeg  -0.0235374 -7.92514 -2.54448
RightLeg  8.00965 -6.04638 2.60064
RightFoot  -9.7096 -0.0183796 -3.31596
RightToes  -1.16417e-010 0 -3.6325e-017
Spine  -0.86271 -1.27346 0.26183
Spine1  7.22558 -1.67069 1.27861
HEad  -1.63446 1.99433 -6.4121
LeftShoulder1  4.45547 -6.67801 -37.5889
LeftArm  -74.033 17.187 -23.5434
LeftForeArm  35.3325 -26.4268 -3.89102
LeftHand  -0.244104 0.0205437 5.32207
RightShoulder  3.79964 6.17166 33.3246
RightArm  -11.1297 -17.7913 20.8694
RightForeArm  -5.88769 13.5512 5.97156
RightHand  -1.25061 3.11358 -17.1703
LeftUpLeg  0.902298 4.61628 1.30338
LeftLeg  4.31513 11.124 -3.7185
LeftFoot  -6.5478 0.00274934 0.809139
LeftToes  5.72949e-011 -1.2716e-010 -5.73128e-012
18
root  74.0697 40.0951 18.6505 -66.7976 -88.3662 67.8235
RightUpLeg  0.0554791 -8.19048 -2.52282
RightLeg  8.73757 -6.03186 2.51377
RightFoot  -10.4685 -0.0450273 -3.37133
RightToes  -1.16417e-010 0 -3.6325e-017
Spine  -0.960163 -1.39361 0.708972
Spine1  7.89394 -1.77174 1.20462
HEad  -0.462427 2.69351 -6.16593
LeftShoulder1  5.08691 -7.298 -40.7622
LeftArm  -75.7572 15.5964 -25.6513
LeftForeArm  34.7466 -23.0832 -2.48349
LeftHand  -0.244104 0.0205437 5.32207
RightShoulder  4.33859 6.73818 36.3691
RightArm  -12.8351 -18.5079 25.1227
RightForeArm  -4.48407 12.7818 5.90153
RightHand  -0.625315 0.344998 -12.5483
LeftUpLeg  0.583104 5.1088 1.30229
LeftLeg  5.74869 10.5176 -3.14078
LeftFoot  -7.40136 0.0285093 0.492767
LeftToes  5.72949e-011 -1.2716e-010 -5.73128e-012
19
root  73.8692 39.9807 18.5309 -60.9725 -88.4313 61.962
RightUpLeg  -0.126363 -8.58777 -2.28524
RightLeg  10.0076 -5.81317 2.42963
RightFoot  -11.508 -0.0826105 -3.32576
RightToes  -1.16417e-010 0 -3.6325e-017
Spine  -0.71766 -1.56966 1.4954
Spine1  8.11023 -1.88834 1.10253
HEad  0.674411 3.48244 -5.47739
LeftShoulder1  5.44594 -7.58395 -42.639
LeftArm  -70.6439 14.0533 -28.9358
LeftForeArm  24.2999 -18.611 2.82086
LeftHand  -0.244104 0.0205437 5.32207
RightShoulder  4.81624 7.22274 38.8183
RightArm  -14.5307 -18.7933 29.7
RightForeArm  0.192239 11.6444 5.64599
RightHand  -0.188551 -2.22047 -6.56106
LeftUpLeg  -0.439482 6.93978 1.25599
LeftLeg  8.6423 8.58584 -1.69
LeftFoot  -9.03915 0.0507953 0.0905441
LeftToes  5.72949e-011 -1.2716e-010 -5.73128e-012
20
root  73.6455 39.8176 18.4276 -56.2159 -88.9349 57.1192
RightUpLeg  -0.356729 -9.05525 -1.75453
RightLeg  11.5813 -5.23543 2.42986
RightFoot  -12.7406 -0.124964 -3.1909
RightToes  -1.16417e-010 0 -3.6325e-017
Spine  -0.111769 -1.63553 2.7894
Spine1  7.88502 -1.87416 1.05707
HEad  1.32702 3.9582 -5.39537
LeftShoulder1  5.72773 -7.85382 -43.8487
LeftArm  -52.9127 14.7523 -31.8097
LeftForeArm  13.4739 -14.1898 6.06216
LeftHand  -0.244104 0.0205437 5.32207
RightShoulder  5.24903 7.69349 40.696
RightArm  -15.2717 -18.9834 34.2012
RightForeArm  3.14974 10.9093 5.56538
RightHand  -0.0365136 -4.26404 -2.88222
LeftUpLeg  -2.22014 9.76471 1.29575
LeftLeg  13.0213 5.78026 0.501073
LeftFoot  -10.8801 0.0701503 -1.63384
LeftToes  5.72949e-011 -1.2716e-010 -5.73128e-012
21
root  73.3973 39.6441 18.3498 -43.0639 -89.5894 43.7915
RightUpLeg  -0.412188 -9.55361 -1.22756
RightLeg  13.0938 -4.37879 2.50818
RightFoot  -14.013 -0.162165 -2.8973
RightToes  -1.16417e-010 0 -3.6325e-017
Spine  0.630015 -1.49347 4.23434
Spine1  7.84702 -1.66388 1.15245
HEad  1.17528 3.87408 -6.18616
LeftShoulder1  5.95534 -8.07046 -44.785
LeftArm  -22.3115 20.6632 -32.0671
LeftForeArm  25.6287 -14.2985 -2.17869
LeftHand  -0.244104 0.0205437 5.32207
RightShoulder  5.59614 8.06915 42.0824
RightArm  -15.4918 -19.2281 37.6407
RightForeArm  -3.27721 11.0473 6.07231
RightHand  -0.0332949 -5.48186 -5.32848
LeftUpLeg  -4.72404 10.2901 1.48692
LeftLeg  18.842 5.8541 2.73024
LeftFoot  -11.5162 0.0663438 -4.17187
LeftToes  5.72949e-011 -1.2716e-010 -5.73128e-012
22
root  73.1148 39.5076 18.3071 -8.81624 -89.8098 9.27791
RightUpLeg  -0.107453 -10.0492 -1.09895
RightLeg  14.2107 -3.73974 2.58747
RightFoot  -15.1272 -0.185181 -2.50599
RightToes  -1.16417e-010 0 -3.6325e-017
Spine  1.27756 -1.25599 5.37998
Spine1  8.41401 -1.35882 1.24189
HEad  0.375008 3.23911 -7.00541
LeftShoulder1  6.08614 -8.16743 -45.4127
LeftArm  -20.5686 20.9778 -35.2921
LeftForeArm  22.0271 -12.7418 -2.58936
LeftHand  -0.244104 0.0205437 5.32207
RightShoulder  5.7976 8.27564 42.8828
RightArm  -15.7459 -19.5669 38.8828
RightForeArm  -14.2832 12.0305 6.67506
RightHand  -0.104787 -4.47582 -11.5203
LeftUpLeg  -7.8405 8.07485 1.60531
LeftLeg  26.0052 8.76096 4.95924
LeftFoot  -10.244 0.109758 -5.29174
LeftToes  5.72949e-011 -1.2716e-010 -5.73128e-012
